<?xml version="1.0" encoding="UTF-8" standalone="no"?>
<svg
   data-name="Layer 1"
   width="524.45074"
   height="456.80338"
   viewBox="0 0 524.45074 456.80338"
   version="1.1"
   id="svg70"
   sodipodi:docname="man.svg"
   inkscape:version="1.3.2 (091e20e, 2023-11-25, custom)"
   xmlns:inkscape="http://www.inkscape.org/namespaces/inkscape"
   xmlns:sodipodi="http://sodipodi.sourceforge.net/DTD/sodipodi-0.dtd"
   xmlns="http://www.w3.org/2000/svg"
   xmlns:svg="http://www.w3.org/2000/svg">
  <defs
     id="defs70" />
  <sodipodi:namedview
     id="namedview70"
     pagecolor="#ffffff"
     bordercolor="#000000"
     borderopacity="0.25"
     inkscape:showpageshadow="2"
     inkscape:pageopacity="0.0"
     inkscape:pagecheckerboard="0"
     inkscape:deskcolor="#d1d1d1"
     inkscape:zoom="0.34695339"
     inkscape:cx="-25.940084"
     inkscape:cy="402.0713"
     inkscape:window-width="1920"
     inkscape:window-height="974"
     inkscape:window-x="-11"
     inkscape:window-y="-11"
     inkscape:window-maximized="1"
     inkscape:current-layer="svg70" />
  <path
     d="m 472.8651,237.72779 a 218.40988,218.40988 0 0 1 -60.95195,151.62454 q -3.54239,3.70891 -7.27601,7.23901 -5.68823,5.41076 -11.75875,10.40222 a 218.23957,218.23957 0 0 1 -134.16214,49.75431 q -2.45099,0.0555 -4.92055,0.0555 c -39.11162,0 -88.3048,-20.89072 -132.94742,-49.8098 q -5.54025,-3.58867 -10.98182,-7.34383 -2.54353,-1.73884 -5.06238,-3.52701 A 450.39062,450.39062 0 0 1 55.894528,356.16635 317.00958,317.00958 0 0 1 27.684583,326.00176 C -6.6174508,283.6899 -14.183273,245.5649 34.720121,237.72779 q 8.684959,-1.38738 16.858125,-2.9659 11.838977,-2.27529 22.660443,-4.91439 14.576668,-3.54242 27.389871,-7.68296 4.31011,-1.38738 8.42291,-2.83024 c 40.53598,-14.23754 67.66684,-32.80365 86.13433,-52.94836 q 4.69857,-5.11478 8.66338,-10.3529 a 145.55408,145.55408 0 0 0 10.99417,-16.72247 157.17308,157.17308 0 0 0 11.35179,-25.31186 l 0.16649,-0.48096 c 14.69384,-42.385809 10.22341,-81.700902 26.4341,-94.859382 69.2947,-56.253388 155.56469,23.856666 196.0575,118.327572 q 3.06147,7.14036 5.75915,14.36704 1.21163,3.228 2.33695,6.46825 2.95969,8.44441 5.37068,16.93211 0.92492,3.23721 1.76353,6.46825 c 0.59812,2.32462 1.17156,4.64307 1.70185,6.96154 3.94008,16.97529 6.07971,33.71628 6.07971,49.54466 z"
     fill="#f2f2f2"
     id="path1"
     style="stroke-width:0.999999;fill:#222222;fill-opacity:1" />
  <path
     d="m 258.71625,456.74789 q -2.45099,0.0555 -4.92055,0.0555 c -39.11162,0 -88.3048,-20.89073 -132.94742,-49.80981 q -5.54025,-3.58867 -10.98182,-7.34383 l 3.1817,-19.36157 96.32075,-12.7885 48.34227,36.9658 z"
     fill="#2f2e41"
     id="path2"
     style="stroke-width:0.999999" />
  <path
     d="m 263.35312,111.02053 h -13.72574 a 1.6038042,1.6038042 0 0 0 -1.6031,1.60309 v 13.73192 a 1.5986493,1.5986493 0 0 0 1.6031,1.59708 h 13.72574 a 1.6026819,1.6026819 0 0 0 1.60326,-1.59708 v -13.73192 a 1.6078799,1.6078799 0 0 0 -1.60326,-1.60309 z"
     fill="#ffffff"
     id="path3"
     style="stroke-width:0.999999" />
  <path
     d="m 263.35312,134.42086 h -13.72574 a 1.603835,1.603835 0 0 0 -1.6031,1.60319 v 13.73192 a 1.5985815,1.5985815 0 0 0 1.6031,1.59703 h 13.72574 a 1.6026141,1.6026141 0 0 0 1.60326,-1.59703 v -13.73192 a 1.6078922,1.6078922 0 0 0 -1.60326,-1.60319 z"
     fill="#e6e6e6"
     id="path4"
     style="stroke-width:0.999999" />
  <path
     d="m 263.35312,157.82121 h -13.72574 a 1.6039028,1.6039028 0 0 0 -1.6031,1.60324 v 13.72576 a 1.5998826,1.5998826 0 0 0 1.6031,1.60309 h 13.72574 a 1.6039028,1.6039028 0 0 0 1.60326,-1.60309 v -13.72576 a 1.6079601,1.6079601 0 0 0 -1.60326,-1.60324 z"
     fill="#e6e6e6"
     id="path5"
     style="stroke-width:0.999999" />
  <path
     d="m 264.93169,182.54119 a 1.6137562,1.6137562 0 0 0 -1.57857,-1.31965 h -13.72574 a 1.6039522,1.6039522 0 0 0 -1.6031,1.60326 v 13.72575 a 1.5999441,1.5999441 0 0 0 1.6031,1.60318 h 13.72574 a 1.6039645,1.6039645 0 0 0 1.60326,-1.60318 V 182.8248 a 1.4260415,1.4260415 0 0 0 -0.0247,-0.28361 z"
     fill="#e6e6e6"
     id="path6"
     style="stroke-width:0.999999" />
  <path
     d="m 263.97593,204.74534 a 1.6241523,1.6241523 0 0 0 -0.62276,-0.12332 H 249.6274 a 1.5999504,1.5999504 0 0 0 -1.60308,1.60318 v 13.72576 a 1.5960102,1.5960102 0 0 0 1.60308,1.60325 h 13.72577 a 1.6040324,1.6040324 0 0 0 1.60324,-1.60325 V 206.2252 a 1.6128992,1.6128992 0 0 0 -0.98048,-1.4798 z"
     fill="#e6e6e6"
     id="path7"
     style="stroke-width:0.999999" />
  <path
     d="m 292.18588,111.02053 h -13.72576 a 1.6038042,1.6038042 0 0 0 -1.60309,1.60309 v 13.73192 a 1.5986493,1.5986493 0 0 0 1.60309,1.59708 h 13.72576 a 1.6026819,1.6026819 0 0 0 1.60324,-1.59708 v -13.73192 a 1.6078799,1.6078799 0 0 0 -1.60324,-1.60309 z"
     fill="#e6e6e6"
     id="path8"
     style="stroke-width:0.999999" />
  <path
     d="m 292.18588,134.42086 h -13.72576 a 1.603835,1.603835 0 0 0 -1.60309,1.60319 v 13.73192 a 1.5985815,1.5985815 0 0 0 1.60309,1.59703 h 13.72576 a 1.6026141,1.6026141 0 0 0 1.60324,-1.59703 v -13.73192 a 1.6078922,1.6078922 0 0 0 -1.60324,-1.60319 z"
     fill="#ffd800"
     id="path9"
     style="stroke-width:0.999999" />
  <path
     d="m 292.18588,157.82121 h -13.72576 a 1.6039028,1.6039028 0 0 0 -1.60309,1.60324 v 13.72576 a 1.5998826,1.5998826 0 0 0 1.60309,1.60309 h 13.72576 a 1.6039028,1.6039028 0 0 0 1.60324,-1.60309 v -13.72576 a 1.6079601,1.6079601 0 0 0 -1.60324,-1.60324 z"
     fill="#ffd800"
     id="path10"
     style="stroke-width:0.999999" />
  <path
     d="m 292.18588,181.22154 h -13.72576 a 1.5986307,1.5986307 0 0 0 -1.51686,1.09758 1.5282447,1.5282447 0 0 0 -0.0863,0.50567 v 13.72574 a 1.5999441,1.5999441 0 0 0 1.6031,1.60319 h 13.72574 a 1.6039645,1.6039645 0 0 0 1.60324,-1.60319 v -13.72574 a 1.6080095,1.6080095 0 0 0 -1.60321,-1.60325 z"
     fill="#ffd800"
     id="path11"
     style="stroke-width:0.999999" />
  <path
     d="m 292.18588,204.62196 h -13.72576 a 1.5999504,1.5999504 0 0 0 -1.60309,1.60319 v 13.72576 a 1.600012,1.600012 0 0 0 1.60309,1.60324 h 13.72576 a 1.6040324,1.6040324 0 0 0 1.60324,-1.60324 v -13.72576 a 1.6039706,1.6039706 0 0 0 -1.60324,-1.60319 z"
     fill="#e6e6e6"
     id="path12"
     style="stroke-width:0.999999" />
  <path
     d="m 321.01858,111.02053 h -13.72575 a 1.6038042,1.6038042 0 0 0 -1.6031,1.60309 v 13.73192 a 1.5986493,1.5986493 0 0 0 1.6031,1.59708 h 13.72575 a 1.6026819,1.6026819 0 0 0 1.60325,-1.59708 v -13.73192 a 1.6078799,1.6078799 0 0 0 -1.60325,-1.60309 z"
     fill="#ffd800"
     id="path13"
     style="stroke-width:0.999999" />
  <path
     d="m 321.01858,134.42086 h -13.72575 a 1.603835,1.603835 0 0 0 -1.6031,1.60319 v 13.73192 a 1.5985815,1.5985815 0 0 0 1.6031,1.59703 h 13.72575 a 1.6026141,1.6026141 0 0 0 1.60325,-1.59703 v -13.73192 a 1.6078922,1.6078922 0 0 0 -1.60325,-1.60319 z"
     fill="#ffd800"
     id="path14"
     style="stroke-width:0.999999" />
  <path
     d="m 321.01858,157.82121 h -13.72575 a 1.6039028,1.6039028 0 0 0 -1.6031,1.60324 v 13.72576 a 1.5998826,1.5998826 0 0 0 1.6031,1.60309 h 13.72575 a 1.6039028,1.6039028 0 0 0 1.60325,-1.60309 v -13.72576 a 1.6079601,1.6079601 0 0 0 -1.60325,-1.60324 z"
     fill="#e6e6e6"
     id="path15"
     style="stroke-width:0.999999" />
  <path
     d="m 321.01858,181.22154 h -13.72575 a 1.6039522,1.6039522 0 0 0 -1.6031,1.60326 v 13.72575 a 1.5999441,1.5999441 0 0 0 1.6031,1.60318 h 13.72575 a 1.6039645,1.6039645 0 0 0 1.60325,-1.60318 V 182.8248 a 1.6080095,1.6080095 0 0 0 -1.60325,-1.60326 z"
     fill="#ffd800"
     id="path16"
     style="stroke-width:0.999999" />
  <path
     d="m 321.01858,204.62196 h -13.72575 a 1.5999504,1.5999504 0 0 0 -1.6031,1.60319 v 13.72576 a 1.600012,1.600012 0 0 0 1.6031,1.60324 h 13.72575 a 1.6040324,1.6040324 0 0 0 1.60325,-1.60324 v -13.72576 a 1.6039706,1.6039706 0 0 0 -1.60325,-1.60319 z"
     fill="#ffd800"
     id="path17"
     style="stroke-width:0.999999" />
  <path
     d="m 349.85129,111.02053 h -13.72575 a 1.6038843,1.6038843 0 0 0 -1.60318,1.60309 v 13.73192 a 1.5987172,1.5987172 0 0 0 1.60318,1.59708 h 13.72575 a 1.6026819,1.6026819 0 0 0 1.60326,-1.59708 v -13.73192 a 1.6078799,1.6078799 0 0 0 -1.60326,-1.60309 z"
     fill="#ffd800"
     id="path18"
     style="stroke-width:0.999999" />
  <path
     d="m 349.85129,134.42086 h -13.72575 a 1.6039028,1.6039028 0 0 0 -1.60318,1.60319 v 13.73192 a 1.5986493,1.5986493 0 0 0 1.60318,1.59703 h 13.72575 a 1.6026141,1.6026141 0 0 0 1.60326,-1.59703 v -13.73192 a 1.6078922,1.6078922 0 0 0 -1.60326,-1.60319 z"
     fill="#ffffff"
     id="path19"
     style="stroke-width:0.999999" />
  <path
     d="m 349.85129,157.82121 h -13.72575 a 1.6039645,1.6039645 0 0 0 -1.60318,1.60324 v 13.72576 a 1.5999441,1.5999441 0 0 0 1.60318,1.60309 h 13.72575 a 1.6039028,1.6039028 0 0 0 1.60326,-1.60309 v -13.72576 a 1.6079601,1.6079601 0 0 0 -1.60326,-1.60324 z"
     fill="#ffffff"
     id="path20"
     style="stroke-width:0.999999" />
  <path
     d="m 349.85129,181.22154 h -13.72575 a 1.6040138,1.6040138 0 0 0 -1.60318,1.60326 v 13.72575 a 1.600012,1.600012 0 0 0 1.60318,1.60318 h 13.72575 a 1.6039645,1.6039645 0 0 0 1.60326,-1.60318 V 182.8248 a 1.6080095,1.6080095 0 0 0 -1.60326,-1.60326 z"
     fill="#e6e6e6"
     id="path21"
     style="stroke-width:0.999999" />
  <path
     d="m 349.85129,204.62196 h -13.72575 a 1.600012,1.600012 0 0 0 -1.60318,1.60319 v 13.72576 a 1.6001045,1.6001045 0 0 0 1.60318,1.60324 h 13.72575 a 1.6040324,1.6040324 0 0 0 1.60326,-1.60324 v -13.72576 a 1.6039706,1.6039706 0 0 0 -1.60326,-1.60319 z"
     fill="#ffd800"
     id="path22"
     style="stroke-width:0.999999" />
  <path
     d="m 378.684,111.02053 h -13.73192 a 1.6025709,1.6025709 0 0 0 -1.59701,1.60309 v 13.73192 a 1.5973852,1.5973852 0 0 0 1.59701,1.59708 H 378.684 a 1.6026819,1.6026819 0 0 0 1.60326,-1.59708 v -13.73192 a 1.6078799,1.6078799 0 0 0 -1.60326,-1.60309 z"
     fill="#ffffff"
     id="path23"
     style="stroke-width:0.999999" />
  <path
     d="m 378.684,134.42086 h -13.73192 a 1.6025709,1.6025709 0 0 0 -1.59701,1.60319 v 13.73192 a 1.5973173,1.5973173 0 0 0 1.59701,1.59703 H 378.684 a 1.6026141,1.6026141 0 0 0 1.60326,-1.59703 v -13.73192 a 1.6078922,1.6078922 0 0 0 -1.60326,-1.60319 z"
     fill="#ffffff"
     id="path24"
     style="stroke-width:0.999999" />
  <path
     d="m 378.684,157.82121 h -13.73192 a 1.6026635,1.6026635 0 0 0 -1.59701,1.60324 v 13.72576 a 1.5986307,1.5986307 0 0 0 1.59701,1.60309 H 378.684 a 1.6039028,1.6039028 0 0 0 1.60326,-1.60309 v -13.72576 a 1.6079601,1.6079601 0 0 0 -1.60326,-1.60324 z"
     fill="#ffffff"
     id="path25"
     style="stroke-width:0.999999" />
  <path
     d="m 378.684,181.22154 h -13.73192 a 1.6027127,1.6027127 0 0 0 -1.59701,1.60326 v 13.72575 a 1.5986925,1.5986925 0 0 0 1.59701,1.60318 H 378.684 a 1.6039645,1.6039645 0 0 0 1.60326,-1.60318 V 182.8248 a 1.6080095,1.6080095 0 0 0 -1.60326,-1.60326 z"
     fill="#ffd800"
     id="path26"
     style="stroke-width:0.999999" />
  <path
     d="m 378.684,204.62196 h -13.73192 a 1.5986986,1.5986986 0 0 0 -1.59701,1.60319 v 13.72576 a 1.5987603,1.5987603 0 0 0 1.59701,1.60324 H 378.684 a 1.6040324,1.6040324 0 0 0 1.60326,-1.60324 v -13.72576 a 1.6039706,1.6039706 0 0 0 -1.60326,-1.60319 z"
     fill="#e6e6e6"
     id="path27"
     style="stroke-width:0.999999" />
  <path
     d="M 407.51672,111.02053 H 393.7848 a 1.6025709,1.6025709 0 0 0 -1.59701,1.60309 v 13.73192 a 1.5973852,1.5973852 0 0 0 1.59701,1.59708 h 13.73192 a 1.6027374,1.6027374 0 0 0 1.60325,-1.59708 v -13.73192 a 1.6079293,1.6079293 0 0 0 -1.60325,-1.60309 z"
     fill="#ffffff"
     id="path28"
     style="stroke-width:0.999999" />
  <path
     d="M 407.51672,134.42086 H 393.7848 a 1.6025709,1.6025709 0 0 0 -1.59701,1.60319 v 13.73192 a 1.5973173,1.5973173 0 0 0 1.59701,1.59703 h 13.73192 a 1.6026696,1.6026696 0 0 0 1.60325,-1.59703 v -13.73192 a 1.6079477,1.6079477 0 0 0 -1.60325,-1.60319 z"
     fill="#ffffff"
     id="path29"
     style="stroke-width:0.999999" />
  <path
     d="M 407.51672,157.82121 H 393.7848 a 1.6026635,1.6026635 0 0 0 -1.59701,1.60324 v 13.72576 a 1.5986307,1.5986307 0 0 0 1.59701,1.60309 h 13.73192 a 1.6039522,1.6039522 0 0 0 1.60325,-1.60309 v -13.72576 a 1.6080095,1.6080095 0 0 0 -1.60325,-1.60324 z"
     fill="#ffd800"
     id="path30"
     style="stroke-width:0.999999" />
  <path
     d="M 407.51672,181.22154 H 393.7848 a 1.6027127,1.6027127 0 0 0 -1.59701,1.60326 v 13.72575 a 1.5986925,1.5986925 0 0 0 1.59701,1.60318 h 13.73192 a 1.6040138,1.6040138 0 0 0 1.60325,-1.60318 V 182.8248 a 1.6080649,1.6080649 0 0 0 -1.60325,-1.60326 z"
     fill="#e6e6e6"
     id="path31"
     style="stroke-width:0.999999" />
  <path
     d="M 407.51672,204.62196 H 393.7848 a 1.5986986,1.5986986 0 0 0 -1.59701,1.60319 v 13.72576 a 1.5987603,1.5987603 0 0 0 1.59701,1.60324 h 13.73192 a 1.6040878,1.6040878 0 0 0 1.60325,-1.60324 v -13.72576 a 1.60402,1.60402 0 0 0 -1.60325,-1.60319 z"
     fill="#ffffff"
     id="path32"
     style="stroke-width:0.999999" />
  <path
     d="m 436.34943,111.02053 h -13.73192 a 1.6025709,1.6025709 0 0 0 -1.59702,1.60309 v 13.73192 a 1.5973852,1.5973852 0 0 0 1.59702,1.59708 h 13.73192 a 1.6027374,1.6027374 0 0 0 1.60324,-1.59708 v -13.73192 a 1.6079293,1.6079293 0 0 0 -1.60324,-1.60309 z"
     fill="#ffd800"
     id="path33"
     style="stroke-width:0.999999" />
  <path
     d="m 436.34943,134.42086 h -13.73192 a 1.6025709,1.6025709 0 0 0 -1.59702,1.60319 v 13.73192 a 1.5973173,1.5973173 0 0 0 1.59702,1.59703 h 13.73192 a 1.6026696,1.6026696 0 0 0 1.60324,-1.59703 v -13.73192 a 1.6079477,1.6079477 0 0 0 -1.60324,-1.60319 z"
     fill="#ffd800"
     id="path34"
     style="stroke-width:0.999999" />
  <path
     d="m 436.34943,157.82121 h -13.73192 a 1.6026635,1.6026635 0 0 0 -1.59702,1.60324 v 13.72576 a 1.5986307,1.5986307 0 0 0 1.59702,1.60309 h 13.73192 a 1.6039522,1.6039522 0 0 0 1.60324,-1.60309 v -13.72576 a 1.6080095,1.6080095 0 0 0 -1.60324,-1.60324 z"
     fill="#e6e6e6"
     id="path35"
     style="stroke-width:0.999999" />
  <path
     d="m 436.34943,181.22154 h -13.73192 a 1.6027127,1.6027127 0 0 0 -1.59702,1.60326 v 13.72575 a 1.5986925,1.5986925 0 0 0 1.59702,1.60318 h 13.73192 a 1.6040138,1.6040138 0 0 0 1.60324,-1.60318 V 182.8248 a 1.6080649,1.6080649 0 0 0 -1.60324,-1.60326 z"
     fill="#ffffff"
     id="path36"
     style="stroke-width:0.999999" />
  <path
     d="m 436.34943,204.62196 h -13.73192 a 1.5986986,1.5986986 0 0 0 -1.59702,1.60319 v 13.72576 a 1.5987603,1.5987603 0 0 0 1.59702,1.60324 h 13.73192 a 1.6040878,1.6040878 0 0 0 1.60324,-1.60324 v -13.72576 a 1.60402,1.60402 0 0 0 -1.60324,-1.60319 z"
     fill="#ffd800"
     id="path37"
     style="stroke-width:0.999999" />
  <path
     d="m 465.18214,111.02053 h -13.73192 a 1.6025709,1.6025709 0 0 0 -1.59702,1.60309 v 13.73192 a 1.5973852,1.5973852 0 0 0 1.59702,1.59708 h 13.73192 a 1.6026696,1.6026696 0 0 0 1.60319,-1.59708 v -13.73192 a 1.6078675,1.6078675 0 0 0 -1.60319,-1.60309 z"
     fill="#ffd800"
     id="path38"
     style="stroke-width:0.999999" />
  <path
     d="m 465.18214,134.42086 h -13.73192 a 1.6025709,1.6025709 0 0 0 -1.59702,1.60319 v 13.73192 a 1.5973173,1.5973173 0 0 0 1.59702,1.59703 h 13.73192 a 1.602608,1.602608 0 0 0 1.60319,-1.59703 v -13.73192 a 1.6078799,1.6078799 0 0 0 -1.60319,-1.60319 z"
     fill="#ffd800"
     id="path39"
     style="stroke-width:0.999999" />
  <path
     d="m 465.18214,157.82121 h -13.73192 a 1.6026635,1.6026635 0 0 0 -1.59702,1.60324 v 13.72576 a 1.5986307,1.5986307 0 0 0 1.59702,1.60309 h 13.73192 a 1.6038904,1.6038904 0 0 0 1.60319,-1.60309 v -13.72576 a 1.6079477,1.6079477 0 0 0 -1.60319,-1.60324 z"
     fill="#e6e6e6"
     id="path40"
     style="stroke-width:0.999999" />
  <path
     d="m 465.18214,181.22154 h -13.73192 a 1.6027127,1.6027127 0 0 0 -1.59702,1.60326 v 13.72575 a 1.5986925,1.5986925 0 0 0 1.59702,1.60318 h 13.73192 a 1.6039522,1.6039522 0 0 0 1.60319,-1.60318 V 182.8248 a 1.6079971,1.6079971 0 0 0 -1.60319,-1.60326 z"
     fill="#ffd800"
     id="path41"
     style="stroke-width:0.999999" />
  <path
     d="m 465.18214,204.62196 h -13.73192 a 1.5986986,1.5986986 0 0 0 -1.59702,1.60319 v 13.72576 a 1.5987603,1.5987603 0 0 0 1.59702,1.60324 h 13.73192 a 1.60402,1.60402 0 0 0 1.60319,-1.60324 v -13.72576 a 1.6039583,1.6039583 0 0 0 -1.60319,-1.60319 z"
     fill="#ffd800"
     id="path42"
     style="stroke-width:0.999999" />
  <path
     d="m 494.01486,111.02053 h -13.73192 a 1.6025709,1.6025709 0 0 0 -1.59703,1.60309 v 13.73192 a 1.5973852,1.5973852 0 0 0 1.59703,1.59708 h 13.73192 a 1.6026696,1.6026696 0 0 0 1.60318,-1.59708 v -13.73192 a 1.6078675,1.6078675 0 0 0 -1.60318,-1.60309 z"
     fill="#e6e6e6"
     id="path43"
     style="stroke-width:0.999999" />
  <path
     d="m 494.01486,134.42086 h -13.73192 a 1.6025709,1.6025709 0 0 0 -1.59703,1.60319 v 13.73192 a 1.5973173,1.5973173 0 0 0 1.59703,1.59703 h 13.73192 a 1.602608,1.602608 0 0 0 1.60318,-1.59703 v -13.73192 a 1.6078799,1.6078799 0 0 0 -1.60318,-1.60319 z"
     fill="#ffd800"
     id="path44"
     style="stroke-width:0.999999" />
  <path
     d="m 494.01486,157.82121 h -13.73192 a 1.6026635,1.6026635 0 0 0 -1.59703,1.60324 v 13.72576 a 1.5986307,1.5986307 0 0 0 1.59703,1.60309 h 13.73192 a 1.6038904,1.6038904 0 0 0 1.60318,-1.60309 v -13.72576 a 1.6079477,1.6079477 0 0 0 -1.60318,-1.60324 z"
     fill="#ffd800"
     id="path45"
     style="stroke-width:0.999999" />
  <path
     d="m 494.01486,181.22154 h -13.73192 a 1.6027127,1.6027127 0 0 0 -1.59703,1.60326 v 13.72575 a 1.5986925,1.5986925 0 0 0 1.59703,1.60318 h 13.73192 a 1.6039522,1.6039522 0 0 0 1.60318,-1.60318 V 182.8248 a 1.6079971,1.6079971 0 0 0 -1.60318,-1.60326 z"
     fill="#ffd800"
     id="path46"
     style="stroke-width:0.999999" />
  <path
     d="m 494.01486,204.62196 h -13.73192 a 1.5986986,1.5986986 0 0 0 -1.59703,1.60319 v 13.72576 a 1.5987603,1.5987603 0 0 0 1.59703,1.60324 h 13.73192 a 1.60402,1.60402 0 0 0 1.60318,-1.60324 v -13.72576 a 1.6039583,1.6039583 0 0 0 -1.60318,-1.60319 z"
     fill="#e6e6e6"
     id="path47"
     style="stroke-width:0.999999" />
  <path
     d="m 522.84756,111.02053 h -13.73191 a 1.6026511,1.6026511 0 0 0 -1.59708,1.60309 v 13.73192 a 1.597453,1.597453 0 0 0 1.59708,1.59708 h 13.73191 a 1.6026696,1.6026696 0 0 0 1.6032,-1.59708 v -13.73192 a 1.6078675,1.6078675 0 0 0 -1.6032,-1.60309 z"
     fill="#e6e6e6"
     id="path48"
     style="stroke-width:0.999999" />
  <path
     d="m 522.84756,134.42086 h -13.73191 a 1.6026696,1.6026696 0 0 0 -1.59708,1.60319 v 13.73192 a 1.5973852,1.5973852 0 0 0 1.59708,1.59703 h 13.73191 a 1.602608,1.602608 0 0 0 1.6032,-1.59703 v -13.73192 a 1.6078799,1.6078799 0 0 0 -1.6032,-1.60319 z"
     fill="#e6e6e6"
     id="path49"
     style="stroke-width:0.999999" />
  <path
     d="m 522.84756,157.82121 h -13.73191 a 1.6027313,1.6027313 0 0 0 -1.59708,1.60324 v 13.72576 a 1.5986986,1.5986986 0 0 0 1.59708,1.60309 h 13.73191 a 1.6038904,1.6038904 0 0 0 1.6032,-1.60309 v -13.72576 a 1.6079477,1.6079477 0 0 0 -1.6032,-1.60324 z"
     fill="#ffd800"
     id="path50"
     style="stroke-width:0.999999" />
  <path
     d="m 522.84756,181.22154 h -13.73191 a 1.6027806,1.6027806 0 0 0 -1.59708,1.60326 v 13.72575 a 1.5987603,1.5987603 0 0 0 1.59708,1.60318 h 13.73191 a 1.6039522,1.6039522 0 0 0 1.6032,-1.60318 V 182.8248 a 1.6079971,1.6079971 0 0 0 -1.6032,-1.60326 z"
     fill="#e6e6e6"
     id="path51"
     style="stroke-width:0.999999" />
  <path
     d="m 522.84756,204.62196 h -13.73191 a 1.5987664,1.5987664 0 0 0 -1.59708,1.60319 v 13.72576 a 1.5988281,1.5988281 0 0 0 1.59708,1.60324 h 13.73191 a 1.60402,1.60402 0 0 0 1.6032,-1.60324 v -13.72576 a 1.6039583,1.6039583 0 0 0 -1.6032,-1.60319 z"
     fill="#e6e6e6"
     id="path52"
     style="stroke-width:0.999999" />
  <polygon
     points="336.005,659.981 336.095,660.051 335.475,660.051 "
     fill="#2f2e41"
     id="polygon52"
     transform="matrix(0.61661058,0,0,0.61661058,-7.8259637e-7,2.6657174e-5)"
     style="stroke-width:1.62177" />
  <circle
     id="b6132315-04e2-4cdb-a713-107c9cd58b0b"
     data-name="ab6171fa-7d69-4734-b81c-8dff60f9761b"
     cx="174.38634"
     cy="108.97532"
     r="42.127979"
     fill="#ffb6b6"
     style="stroke-width:0.999999" />
  <path
     id="f4304bdd-ba2d-4fff-b404-410205410c5d-201"
     data-name="bf427902-b9bf-4946-b5d7-5c1c7e04535e"
     d="m 211.27913,78.08781 c 0,0 11.01846,-21.063985 -13.22249,-22.978909 0,0 -20.66564,-18.746369 -41.72963,-3.42713 0,0 -11.48943,0 -17.77228,13.001652 0,0 -9.03643,-3.427129 -11.02223,5.744717 0,0 -6.61221,19.149131 0,36.38331 6.61222,17.23422 8.80851,19.14907 8.80851,19.14907 0,0 -10.86523,-36.132376 15.58169,-38.047343 26.44694,-1.914953 56.04171,-18.442464 58.24575,2.621492 2.20403,21.063941 5.5207,26.253951 5.5207,26.253951 0,0 20.93366,-30.083672 -4.41002,-38.70081 z"
     fill="#2f2e41"
     style="stroke-width:0.999999" />
  <path
     d="m 283.36217,212.79823 -0.13567,0.71527 -1.52303,8.04059 -10.52551,55.61828 -0.62276,3.27424 -1.30722,6.92455 -1.78811,9.44643 -3.96492,20.93398 -1.13446,5.99962 -0.4255,2.25056 -0.14798,0.78926 -1.17774,6.20932 -0.35763,1.87444 -2.8734,21.29155 -2.50965,18.55383 8.39831,8.39824 -5.00696,5.00687 -3.28642,18.82513 0.006,0.0431 H 120.8479 q -8.13932,-5.27209 -16.04421,-10.87092 l 1.10373,-8.26252 c 0,0 3.79826,-14.75553 2.20119,-16.51899 -1.59075,-1.76352 -5.08087,-4.91439 -5.08087,-4.91439 l 4.39652,-10.2604 0.61043,-1.42433 -1.02357,-21.22994 -0.0246,-0.51179 -0.33913,-6.99859 -0.0433,-0.90025 -0.0678,-1.35034 -1.30105,-26.93359 -0.0247,-0.44402 -0.39456,-8.16393 -0.37004,-7.76302 -0.16032,-3.27423 -1.58465,-32.76053 -1.0729,-22.24728 -0.93725,-19.36773 3.7675,-1.27635 40.29556,-13.69498 16.69154,-21.69856 34.73989,0.25898 17.00618,0.12956 28.37635,26.31691 6.45597,3.08305 0.0494,0.0247 4.63067,2.21364 11.74026,5.60498 12.41245,5.93186 6.36949,3.03985 z"
     fill="#cacaca"
     id="path53"
     style="stroke-width:0.999999" />
  <path
     d="m 165.93538,343.7918 a 18.674594,18.674594 0 0 1 -25.07379,-13.83058 l -65.705295,-9.32186 22.840983,-25.83723 58.893102,12.81337 a 18.775793,18.775793 0 0 1 9.045,36.17631 z"
     fill="#ffb6b6"
     id="path54"
     style="stroke-width:0.999999" />
  <path
     d="m 136.63965,296.81759 a 8.3381106,8.3381106 0 0 0 -4.865,-3.0029 l -26.95821,-5.60503 -2.76858,-0.57341 a 11.674085,11.674085 0 0 1 -7.726186,-5.5927 11.814598,11.814598 0 0 1 -1.510701,-4.87116 11.650586,11.650586 0 0 1 0.54879,-4.61226 l 9.341647,-28.14827 6.06125,-18.264 a 25.769483,25.769483 0 0 0 1.28878,-6.81355 26.729316,26.729316 0 0 0 -5.5927,-17.8138 26.325117,26.325117 0 0 0 -30.220094,-8.41066 c -0.154159,0.0556 -0.314478,0.11722 -0.468623,0.17881 a 26.257264,26.257264 0 0 0 -15.606414,17.5179 l -6.585406,23.95533 -13.583934,49.3844 a 35.619374,35.619374 0 0 0 30.189255,44.81521 l 38.827976,4.55058 17.96804,2.10882 a 8.322091,8.322091 0 0 0 9.15049,-6.61624 3.0185802,3.0185802 0 0 0 0.0678,-0.33916 l 0.43162,-2.66381 3.65654,-22.43222 0.0369,-0.22821 a 8.308723,8.308723 0 0 0 -1.68334,-6.52367 z"
     fill="#cacaca"
     id="path55"
     style="stroke-width:0.999999" />
  <path
     d="m 207.78702,344.51091 a 18.674619,18.674619 0 0 0 22.87286,-17.22822 l 63.7341,-18.49441 -26.25622,-22.35803 -56.49766,20.99034 a 18.775793,18.775793 0 0 0 -3.85308,37.09036 z"
     fill="#ffb6b6"
     id="path56"
     style="stroke-width:0.999999" />
  <path
     d="m 326.03785,267.41757 -30.31267,-69.76326 a 26.402649,26.402649 0 0 0 -12.49869,-13.16469 26.733873,26.733873 0 0 0 -5.41379,-1.97315 c -0.28986,-0.0739 -0.57966,-0.14177 -0.86941,-0.19736 a 25.978975,25.978975 0 0 0 -12.01158,0.22204 26.399431,26.399431 0 0 0 -16.85813,13.39895 0.61892904,0.61892904 0 0 0 -0.0494,0.0863 26.576071,26.576071 0 0 0 -0.22822,23.95538 l 0.37621,0.75226 21.42105,43.02093 a 11.654224,11.654224 0 0 1 -6.47442,16.14898 l -1.50457,0.54271 -27.05686,9.77318 a 8.3223315,8.3223315 0 0 0 -5.13637,10.35289 l 0.0678,0.21587 7.58431,24.26971 c 0.0369,0.11097 0.0739,0.22205 0.11708,0.33297 a 4.3497562,4.3497562 0 0 0 0.24664,0.61045 8.3130022,8.3130022 0 0 0 9.74857,4.64307 l 14.60137,-3.85381 2.9782,-0.78926 37.70574,-9.9582 a 35.615656,35.615656 0 0 0 23.56691,-48.62599 z"
     fill="#cacaca"
     id="path57"
     style="stroke-width:0.999999" />
  <path
     d="m 27.684583,326.00179 a 317.00958,317.00958 0 0 0 28.209945,30.16459 H 334.58402 a 10.140704,10.140704 0 0 1 10.12475,10.13091 l 0.40079,70.62041 a 219.16197,219.16197 0 0 0 47.76883,-29.92412 q 6.06744,-4.9853 11.75875,-10.40221 3.72742,-3.53318 7.27601,-7.23901 a 219.28431,219.28431 0 0 0 42.43514,-63.35057 z"
     fill="#3f3d56"
     id="path58"
     style="stroke-width:0.999999" />
  <path
     d="m 411.91315,389.35232 q -3.54239,3.70891 -7.27596,7.23899 h -59.32415 v -7.23899 z"
     fill="#ffffff"
     id="path59"
     style="stroke-width:0.999999" />
  <path
     d="m 282.80722,157.82121 a 3.4145797,3.4145797 0 0 0 -3.00289,-1.78811 H 77.654707 a 3.4249697,3.4249697 0 0 0 -3.416018,3.42213 V 280.44664 H 283.22648 V 159.45523 a 3.3207439,3.3207439 0 0 0 -0.41926,-1.63402 z"
     fill="#3f3d56"
     id="path60"
     style="stroke-width:0.999999" />
  <path
     d="m 74.055636,277.1709 v 14.93048 a 4.7132726,4.7132726 0 0 0 4.713254,4.71333 h 77.13596 v 29.46571 h -1.02471 a 0.61223266,0.61223266 0 0 0 -0.61229,0.61225 v 2.04945 a 0.61223266,0.61223266 0 0 0 0.61229,0.61229 h 47.885 a 0.61223882,0.61223882 0 0 0 0.61229,-0.61229 v -2.04945 a 0.61223266,0.61223266 0 0 0 -0.61229,-0.61225 h -1.02473 v -29.46571 h 77.13597 a 4.7132726,4.7132726 0 0 0 4.71326,-4.71333 V 277.1709 Z"
     fill="#3f3d56"
     id="path61"
     style="stroke-width:0.999999" />
  <circle
     cx="176.29077"
     cy="215.01445"
     r="19.303869"
     fill="#ffd800"
     id="circle61"
     style="stroke-width:0.999999" />
  <path
     d="m 225.47478,106.67338 h -3.08306 c 0,-23.307874 -23.06741,-38.581318 -46.33829,-38.59365 a 50.797781,50.797781 0 0 0 -10.08158,0.980416 c -3.73667,0.746091 -7.61515,1.640182 -11.4258,2.805567 -15.0268,4.606082 -28.96219,13.509941 -28.96219,34.807667 a 48.460042,48.460042 0 0 0 1.56619,12.25823 l -2.98441,0.77693 a 51.718658,51.718658 0 0 1 -1.66484,-13.03516 c 0,-18.609293 7.63981,-31.391635 20.83528,-39.012945 6.93686,-4.007963 15.40292,-6.591565 25.10221,-7.849449 a 59.891875,59.891875 0 0 1 12.17807,-0.369966 c 26.76089,1.923794 44.85842,22.444609 44.85842,47.23236 z"
     fill="#ffd800"
     id="path62"
     style="stroke-width:0.999999" />
  <path
     d="m 230.61115,108.38137 -1.21473,-8.977852 a 9.6870326,9.6870326 0 0 0 -3.08305,-5.894789 9.7521034,9.7521034 0 0 0 -8.1701,-2.466439 l -1.92998,0.265135 a 4.0229277,4.0229277 0 0 0 -2.68226,1.56003 4.0375662,4.0375662 0 0 0 -0.79544,3.002897 l 2.80559,20.681118 a 4.0555219,4.0555219 0 0 0 3.26803,3.43451 3.7948805,3.7948805 0 0 0 0.75226,0.0739 4.0072474,4.0072474 0 0 0 0.54262,-0.037 l 2.15815,-0.2898 a 9.7371136,9.7371136 0 0 0 6.62238,-3.96481 c 0.1665,-0.23431 0.32682,-0.47478 0.4748,-0.72147 a 10.327241,10.327241 0 0 0 1.25173,-6.66553 z"
     fill="#ffd800"
     id="path63"
     style="stroke-width:0.999999" />
  <path
     d="m 214.96772,91.683579 a 3.9658544,3.9658544 0 0 0 -1.43669,1.183905 4.0375662,4.0375662 0 0 0 -0.79544,3.002882 l 2.80559,20.681114 a 4.0555219,4.0555219 0 0 0 3.26803,3.43453 z"
     fill="#ffffff"
     id="path64"
     style="stroke-width:0.999999" />
  <path
     d="m 230.61115,108.38137 -1.21473,-8.977852 a 9.6870326,9.6870326 0 0 0 -3.08305,-5.894789 l 2.79323,20.576291 a 3.8081377,3.8081377 0 0 0 0.25282,0.96191 10.327241,10.327241 0 0 0 1.25173,-6.66556 z"
     fill="#3f3d56"
     id="path65"
     style="stroke-width:0.999999" />
  <ellipse
     cx="203.56577"
     cy="139.20117"
     rx="1.5415264"
     ry="4.3162742"
     transform="rotate(-7.7254895)"
     fill="#3f3d56"
     id="ellipse65"
     style="stroke-width:0.999999" />
  <ellipse
     cx="203.2247"
     cy="127.95428"
     rx="1.5415264"
     ry="4.3162742"
     transform="rotate(-7.7254895)"
     fill="#3f3d56"
     id="ellipse66"
     style="stroke-width:0.999999" />
  <ellipse
     cx="214.25372"
     cy="133.80626"
     rx="1.5415264"
     ry="4.3162742"
     transform="rotate(-7.7254895)"
     fill="#3f3d56"
     id="ellipse67"
     style="stroke-width:0.999999" />
  <path
     d="m 176.05343,68.079715 a 50.797781,50.797781 0 0 0 -10.08158,0.980403 c -3.73667,0.746105 -7.61515,1.640196 -11.4258,2.805581 -5.95029,-0.289799 -10.32823,-1.831338 -11.20997,-4.205278 6.93686,-4.007978 15.40292,-6.591565 25.10221,-7.849463 a 59.891875,59.891875 0 0 1 12.17807,-0.369966 3.5313289,3.5313289 0 0 1 1.67718,2.355463 c 0.2898,2.14583 -2.15814,4.427258 -6.24011,6.28326 z"
     fill="#3f3d56"
     id="path67"
     style="stroke-width:0.999999" />
  <path
     d="m 136.68901,128.06978 -4.7479,-19.7377 a 3.7142587,3.7142587 0 0 0 -3.00907,-2.80558 4.1517995,4.1517995 0 0 0 -0.61661,-0.0494 3.7155474,3.7155474 0 0 0 -0.86325,0.10487 l -1.8375,0.44396 a 9.1899643,9.1899643 0 0 0 -6.77655,11.07433 l 2.12731,8.85453 a 9.7702504,9.7702504 0 0 0 3.2927,5.31522 8.6602958,8.6602958 0 0 0 0.83859,0.59812 9.1315158,9.1315158 0 0 0 7.01086,1.13456 l 1.83134,-0.44396 a 3.6010922,3.6010922 0 0 0 1.33805,-0.62278 3.6955138,3.6955138 0 0 0 1.41203,-3.86618 z"
     fill="#ffd800"
     id="path68"
     style="stroke-width:0.999999" />
  <ellipse
     cx="94.113602"
     cy="146.27991"
     rx="1.5415263"
     ry="4.3162742"
     transform="rotate(-13.53051)"
     fill="#3f3d56"
     id="ellipse68"
     style="stroke-width:0.999999" />
  <ellipse
     cx="87.68586"
     cy="146.63576"
     rx="1.5415263"
     ry="4.3162742"
     transform="rotate(-13.53051)"
     fill="#3f3d56"
     id="ellipse69"
     style="stroke-width:0.999999" />
  <path
     d="m 136.99115,127.99575 -4.74791,-19.7377 a 4.02754,4.02754 0 0 0 -3.26187,-3.03372 l 6.48059,26.9582 a 4.0148132,4.0148132 0 0 0 1.52919,-4.18678 z"
     fill="#ffffff"
     id="path69"
     style="stroke-width:0.999999" />
  <path
     d="m 119.91104,113.19097 a 3.9931703,3.9931703 0 0 0 -0.72145,-1.5107 9.0798684,9.0798684 0 0 0 -0.35146,5.42 l 2.12731,8.85453 a 9.7702504,9.7702504 0 0 0 3.2927,5.31522 z"
     fill="#3f3d56"
     id="path70"
     style="stroke-width:0.999999"
     inkscape:export-filename="man.png"
     inkscape:export-xdpi="96"
     inkscape:export-ydpi="96" />
</svg>
