<?xml version="1.0" encoding="UTF-8" standalone="no"?>
<svg
   data-name="Layer 1"
   width="369.5593"
   height="321.8909"
   viewBox="0 0 369.55929 321.8909"
   version="1.1"
   id="svg70"
   sodipodi:docname="man.svg"
   inkscape:version="1.3.2 (091e20e, 2023-11-25, custom)"
   xmlns:inkscape="http://www.inkscape.org/namespaces/inkscape"
   xmlns:sodipodi="http://sodipodi.sourceforge.net/DTD/sodipodi-0.dtd"
   xmlns="http://www.w3.org/2000/svg"
   xmlns:svg="http://www.w3.org/2000/svg">
  <defs
     id="defs70" />
  <sodipodi:namedview
     id="namedview70"
     pagecolor="#ffffff"
     bordercolor="#000000"
     borderopacity="0.25"
     inkscape:showpageshadow="2"
     inkscape:pageopacity="0.0"
     inkscape:pagecheckerboard="0"
     inkscape:deskcolor="#d1d1d1"
     inkscape:zoom="0.49066619"
     inkscape:cx="-28.532637"
     inkscape:cy="29.551659"
     inkscape:window-width="1920"
     inkscape:window-height="974"
     inkscape:window-x="-11"
     inkscape:window-y="-11"
     inkscape:window-maximized="1"
     inkscape:current-layer="svg70" />
  <path
     d="m 333.20896,167.51718 a 153.90463,153.90463 0 0 1 -42.95038,106.8437 q -2.49618,2.61352 -5.12711,5.10104 -4.00827,3.81274 -8.28592,7.33002 A 153.78462,153.78462 0 0 1 182.3069,321.8518 q -1.72711,0.0391 -3.46731,0.0391 c -27.56038,0 -62.22483,-14.72085 -93.682681,-35.09896 q -3.90399,-2.52879 -7.73845,-5.1749 -1.79232,-1.22529 -3.56725,-2.48534 a 317.3721,317.3721 0 0 1 -34.46459,-28.15564 223.38386,223.38386 0 0 1 -19.87841,-21.25577 c -24.1712596,-29.81546 -29.5025896,-56.68061 4.95766,-62.20311 q 6.11994,-0.97763 11.87924,-2.08995 8.34245,-1.6033 15.9679,-3.46297 10.27159,-2.4962 19.30054,-5.41387 3.03716,-0.97763 5.93528,-1.99436 C 106.1129,144.52341 125.23092,131.44062 138.24422,117.24546 q 3.31089,-3.60418 6.10473,-7.29527 a 102.56609,102.56609 0 0 0 7.74715,-11.783652 110.75353,110.75353 0 0 0 7.99915,-17.83625 l 0.11732,-0.33891 c 10.35415,-29.86757 7.20402,-57.57133 18.62704,-66.84358 48.82918,-39.63949 109.62016,16.81083 138.15381,83.38067 q 2.1573,5.031522 4.05824,10.123872 0.85379,2.27464 1.64676,4.55791 2.08557,5.95044 3.7845,11.93138 0.65175,2.28113 1.24269,4.55791 c 0.42147,1.63807 0.82555,3.27179 1.19922,4.90552 2.77642,11.9618 4.28413,23.7585 4.28413,34.91212 z"
     fill="#f2f2f2"
     id="path1"
     style="stroke-width:0.999999" />
  <path
     d="m 182.3069,321.85181 q -1.72711,0.0391 -3.46731,0.0391 c -27.56038,0 -62.22483,-14.72085 -93.682681,-35.09896 q -3.90399,-2.52879 -7.73845,-5.1749 l 2.24202,-13.64332 67.873341,-9.01154 34.06485,26.04831 z"
     fill="#2f2e41"
     id="path2"
     style="stroke-width:0.999999" />
  <path
     d="m 185.57432,78.231688 h -9.67198 a 1.1301361,1.1301361 0 0 0 -1.12964,1.12963 v 9.67633 a 1.1265037,1.1265037 0 0 0 1.12964,1.1254 h 9.67198 a 1.1293453,1.1293453 0 0 0 1.12975,-1.1254 v -9.67633 a 1.1330081,1.1330081 0 0 0 -1.12975,-1.12963 z"
     fill="#ffffff"
     id="path3"
     style="stroke-width:0.999999" />
  <path
     d="m 185.57432,94.720958 h -9.67198 a 1.1301578,1.1301578 0 0 0 -1.12964,1.1297 v 9.676332 a 1.1264559,1.1264559 0 0 0 1.12964,1.12536 h 9.67198 a 1.1292975,1.1292975 0 0 0 1.12975,-1.12536 v -9.676332 a 1.1330168,1.1330168 0 0 0 -1.12975,-1.1297 z"
     fill="#e6e6e6"
     id="path4"
     style="stroke-width:0.999999" />
  <path
     d="m 185.57432,111.21024 h -9.67198 a 1.1302056,1.1302056 0 0 0 -1.12964,1.12974 v 9.67199 a 1.1273727,1.1273727 0 0 0 1.12964,1.12963 h 9.67198 a 1.1302056,1.1302056 0 0 0 1.12975,-1.12963 v -9.67199 a 1.1330646,1.1330646 0 0 0 -1.12975,-1.12974 z"
     fill="#e6e6e6"
     id="path5"
     style="stroke-width:0.999999" />
  <path
     d="m 186.68667,128.62941 a 1.1371489,1.1371489 0 0 0 -1.11235,-0.9299 h -9.67198 a 1.1302404,1.1302404 0 0 0 -1.12964,1.12975 v 9.67198 a 1.1274161,1.1274161 0 0 0 1.12964,1.1297 h 9.67198 a 1.1302491,1.1302491 0 0 0 1.12975,-1.1297 v -9.67198 a 1.0048739,1.0048739 0 0 0 -0.0174,-0.19985 z"
     fill="#e6e6e6"
     id="path6"
     style="stroke-width:0.999999" />
  <path
     d="m 186.01319,144.27578 a 1.1444746,1.1444746 0 0 0 -0.43884,-0.0869 h -9.67199 a 1.1274205,1.1274205 0 0 0 -1.12963,1.1297 v 9.67199 a 1.124644,1.124644 0 0 0 1.12963,1.12974 h 9.67199 a 1.1302969,1.1302969 0 0 0 1.12974,-1.12974 v -9.67199 a 1.136545,1.136545 0 0 0 -0.6909,-1.04276 z"
     fill="#e6e6e6"
     id="path7"
     style="stroke-width:0.999999" />
  <path
     d="m 205.8916,78.231688 h -9.67199 a 1.1301361,1.1301361 0 0 0 -1.12963,1.12963 v 9.67633 a 1.1265037,1.1265037 0 0 0 1.12963,1.1254 h 9.67199 a 1.1293453,1.1293453 0 0 0 1.12974,-1.1254 v -9.67633 a 1.1330081,1.1330081 0 0 0 -1.12974,-1.12963 z"
     fill="#e6e6e6"
     id="path8"
     style="stroke-width:0.999999" />
  <path
     d="m 205.8916,94.720958 h -9.67199 a 1.1301578,1.1301578 0 0 0 -1.12963,1.1297 v 9.676332 a 1.1264559,1.1264559 0 0 0 1.12963,1.12536 h 9.67199 a 1.1292975,1.1292975 0 0 0 1.12974,-1.12536 v -9.676332 a 1.1330168,1.1330168 0 0 0 -1.12974,-1.1297 z"
     fill="#ffd800"
     id="path9"
     style="stroke-width:0.999999" />
  <path
     d="m 205.8916,111.21024 h -9.67199 a 1.1302056,1.1302056 0 0 0 -1.12963,1.12974 v 9.67199 a 1.1273727,1.1273727 0 0 0 1.12963,1.12963 h 9.67199 a 1.1302056,1.1302056 0 0 0 1.12974,-1.12963 v -9.67199 a 1.1330646,1.1330646 0 0 0 -1.12974,-1.12974 z"
     fill="#ffd800"
     id="path10"
     style="stroke-width:0.999999" />
  <path
     d="m 205.8916,127.69951 h -9.67199 a 1.1264906,1.1264906 0 0 0 -1.06887,0.77342 1.0768924,1.0768924 0 0 0 -0.0608,0.35632 v 9.67198 a 1.1274161,1.1274161 0 0 0 1.12964,1.1297 h 9.67198 a 1.1302491,1.1302491 0 0 0 1.12974,-1.1297 v -9.67198 a 1.1330994,1.1330994 0 0 0 -1.12972,-1.12974 z"
     fill="#ffd800"
     id="path11"
     style="stroke-width:0.999999" />
  <path
     d="m 205.8916,144.18884 h -9.67199 a 1.1274205,1.1274205 0 0 0 -1.12963,1.1297 v 9.67199 a 1.1274639,1.1274639 0 0 0 1.12963,1.12974 h 9.67199 a 1.1302969,1.1302969 0 0 0 1.12974,-1.12974 v -9.67199 a 1.1302534,1.1302534 0 0 0 -1.12974,-1.1297 z"
     fill="#e6e6e6"
     id="path12"
     style="stroke-width:0.999999" />
  <path
     d="m 226.20884,78.231688 h -9.67198 a 1.1301361,1.1301361 0 0 0 -1.12964,1.12963 v 9.67633 a 1.1265037,1.1265037 0 0 0 1.12964,1.1254 h 9.67198 a 1.1293453,1.1293453 0 0 0 1.12975,-1.1254 v -9.67633 a 1.1330081,1.1330081 0 0 0 -1.12975,-1.12963 z"
     fill="#ffd800"
     id="path13"
     style="stroke-width:0.999999" />
  <path
     d="m 226.20884,94.720958 h -9.67198 a 1.1301578,1.1301578 0 0 0 -1.12964,1.1297 v 9.676332 a 1.1264559,1.1264559 0 0 0 1.12964,1.12536 h 9.67198 a 1.1292975,1.1292975 0 0 0 1.12975,-1.12536 v -9.676332 a 1.1330168,1.1330168 0 0 0 -1.12975,-1.1297 z"
     fill="#ffd800"
     id="path14"
     style="stroke-width:0.999999" />
  <path
     d="m 226.20884,111.21024 h -9.67198 a 1.1302056,1.1302056 0 0 0 -1.12964,1.12974 v 9.67199 a 1.1273727,1.1273727 0 0 0 1.12964,1.12963 h 9.67198 a 1.1302056,1.1302056 0 0 0 1.12975,-1.12963 v -9.67199 a 1.1330646,1.1330646 0 0 0 -1.12975,-1.12974 z"
     fill="#e6e6e6"
     id="path15"
     style="stroke-width:0.999999" />
  <path
     d="m 226.20884,127.69951 h -9.67198 a 1.1302404,1.1302404 0 0 0 -1.12964,1.12975 v 9.67198 a 1.1274161,1.1274161 0 0 0 1.12964,1.1297 h 9.67198 a 1.1302491,1.1302491 0 0 0 1.12975,-1.1297 v -9.67198 a 1.1330994,1.1330994 0 0 0 -1.12975,-1.12975 z"
     fill="#ffd800"
     id="path16"
     style="stroke-width:0.999999" />
  <path
     d="m 226.20884,144.18884 h -9.67198 a 1.1274205,1.1274205 0 0 0 -1.12964,1.1297 v 9.67199 a 1.1274639,1.1274639 0 0 0 1.12964,1.12974 h 9.67198 a 1.1302969,1.1302969 0 0 0 1.12975,-1.12974 v -9.67199 a 1.1302534,1.1302534 0 0 0 -1.12975,-1.1297 z"
     fill="#ffd800"
     id="path17"
     style="stroke-width:0.999999" />
  <path
     d="m 246.52609,78.231688 h -9.67198 a 1.1301926,1.1301926 0 0 0 -1.1297,1.12963 v 9.67633 a 1.1265515,1.1265515 0 0 0 1.1297,1.1254 h 9.67198 a 1.1293453,1.1293453 0 0 0 1.12975,-1.1254 v -9.67633 a 1.1330081,1.1330081 0 0 0 -1.12975,-1.12963 z"
     fill="#ffd800"
     id="path18"
     style="stroke-width:0.999999" />
  <path
     d="m 246.52609,94.720958 h -9.67198 a 1.1302056,1.1302056 0 0 0 -1.1297,1.1297 v 9.676332 a 1.1265037,1.1265037 0 0 0 1.1297,1.12536 h 9.67198 a 1.1292975,1.1292975 0 0 0 1.12975,-1.12536 v -9.676332 a 1.1330168,1.1330168 0 0 0 -1.12975,-1.1297 z"
     fill="#ffffff"
     id="path19"
     style="stroke-width:0.999999" />
  <path
     d="m 246.52609,111.21024 h -9.67198 a 1.1302491,1.1302491 0 0 0 -1.1297,1.12974 v 9.67199 a 1.1274161,1.1274161 0 0 0 1.1297,1.12963 h 9.67198 a 1.1302056,1.1302056 0 0 0 1.12975,-1.12963 v -9.67199 a 1.1330646,1.1330646 0 0 0 -1.12975,-1.12974 z"
     fill="#ffffff"
     id="path20"
     style="stroke-width:0.999999" />
  <path
     d="m 246.52609,127.69951 h -9.67198 a 1.1302838,1.1302838 0 0 0 -1.1297,1.12975 v 9.67198 a 1.1274639,1.1274639 0 0 0 1.1297,1.1297 h 9.67198 a 1.1302491,1.1302491 0 0 0 1.12975,-1.1297 v -9.67198 a 1.1330994,1.1330994 0 0 0 -1.12975,-1.12975 z"
     fill="#e6e6e6"
     id="path21"
     style="stroke-width:0.999999" />
  <path
     d="m 246.52609,144.18884 h -9.67198 a 1.1274639,1.1274639 0 0 0 -1.1297,1.1297 v 9.67199 a 1.1275291,1.1275291 0 0 0 1.1297,1.12974 h 9.67198 a 1.1302969,1.1302969 0 0 0 1.12975,-1.12974 v -9.67199 a 1.1302534,1.1302534 0 0 0 -1.12975,-1.1297 z"
     fill="#ffd800"
     id="path22"
     style="stroke-width:0.999999" />
  <path
     d="m 266.84334,78.231688 h -9.67633 a 1.1292671,1.1292671 0 0 0 -1.12535,1.12963 v 9.67633 a 1.1256129,1.1256129 0 0 0 1.12535,1.1254 h 9.67633 a 1.1293453,1.1293453 0 0 0 1.12975,-1.1254 v -9.67633 a 1.1330081,1.1330081 0 0 0 -1.12975,-1.12963 z"
     fill="#ffffff"
     id="path23"
     style="stroke-width:0.999999" />
  <path
     d="m 266.84334,94.720958 h -9.67633 a 1.1292671,1.1292671 0 0 0 -1.12535,1.1297 v 9.676332 a 1.1255651,1.1255651 0 0 0 1.12535,1.12536 h 9.67633 a 1.1292975,1.1292975 0 0 0 1.12975,-1.12536 v -9.676332 a 1.1330168,1.1330168 0 0 0 -1.12975,-1.1297 z"
     fill="#ffffff"
     id="path24"
     style="stroke-width:0.999999" />
  <path
     d="m 266.84334,111.21024 h -9.67633 a 1.1293323,1.1293323 0 0 0 -1.12535,1.12974 v 9.67199 a 1.1264906,1.1264906 0 0 0 1.12535,1.12963 h 9.67633 a 1.1302056,1.1302056 0 0 0 1.12975,-1.12963 v -9.67199 a 1.1330646,1.1330646 0 0 0 -1.12975,-1.12974 z"
     fill="#ffffff"
     id="path25"
     style="stroke-width:0.999999" />
  <path
     d="m 266.84334,127.69951 h -9.67633 a 1.129367,1.129367 0 0 0 -1.12535,1.12975 v 9.67198 a 1.1265341,1.1265341 0 0 0 1.12535,1.1297 h 9.67633 a 1.1302491,1.1302491 0 0 0 1.12975,-1.1297 v -9.67198 a 1.1330994,1.1330994 0 0 0 -1.12975,-1.12975 z"
     fill="#ffd800"
     id="path26"
     style="stroke-width:0.999999" />
  <path
     d="m 266.84334,144.18884 h -9.67633 a 1.1265384,1.1265384 0 0 0 -1.12535,1.1297 v 9.67199 a 1.1265819,1.1265819 0 0 0 1.12535,1.12974 h 9.67633 a 1.1302969,1.1302969 0 0 0 1.12975,-1.12974 v -9.67199 a 1.1302534,1.1302534 0 0 0 -1.12975,-1.1297 z"
     fill="#e6e6e6"
     id="path27"
     style="stroke-width:0.999999" />
  <path
     d="m 287.16059,78.231688 h -9.67633 a 1.1292671,1.1292671 0 0 0 -1.12535,1.12963 v 9.67633 a 1.1256129,1.1256129 0 0 0 1.12535,1.1254 h 9.67633 a 1.1293844,1.1293844 0 0 0 1.12975,-1.1254 v -9.67633 a 1.1330429,1.1330429 0 0 0 -1.12975,-1.12963 z"
     fill="#ffffff"
     id="path28"
     style="stroke-width:0.999999" />
  <path
     d="m 287.16059,94.720958 h -9.67633 a 1.1292671,1.1292671 0 0 0 -1.12535,1.1297 v 9.676332 a 1.1255651,1.1255651 0 0 0 1.12535,1.12536 h 9.67633 a 1.1293366,1.1293366 0 0 0 1.12975,-1.12536 v -9.676332 a 1.1330559,1.1330559 0 0 0 -1.12975,-1.1297 z"
     fill="#ffffff"
     id="path29"
     style="stroke-width:0.999999" />
  <path
     d="m 287.16059,111.21024 h -9.67633 a 1.1293323,1.1293323 0 0 0 -1.12535,1.12974 v 9.67199 a 1.1264906,1.1264906 0 0 0 1.12535,1.12963 h 9.67633 a 1.1302404,1.1302404 0 0 0 1.12975,-1.12963 v -9.67199 a 1.1330994,1.1330994 0 0 0 -1.12975,-1.12974 z"
     fill="#ffd800"
     id="path30"
     style="stroke-width:0.999999" />
  <path
     d="m 287.16059,127.69951 h -9.67633 a 1.129367,1.129367 0 0 0 -1.12535,1.12975 v 9.67198 a 1.1265341,1.1265341 0 0 0 1.12535,1.1297 h 9.67633 a 1.1302838,1.1302838 0 0 0 1.12975,-1.1297 v -9.67198 a 1.1331385,1.1331385 0 0 0 -1.12975,-1.12975 z"
     fill="#e6e6e6"
     id="path31"
     style="stroke-width:0.999999" />
  <path
     d="m 287.16059,144.18884 h -9.67633 a 1.1265384,1.1265384 0 0 0 -1.12535,1.1297 v 9.67199 a 1.1265819,1.1265819 0 0 0 1.12535,1.12974 h 9.67633 a 1.130336,1.130336 0 0 0 1.12975,-1.12974 v -9.67199 a 1.1302882,1.1302882 0 0 0 -1.12975,-1.1297 z"
     fill="#ffffff"
     id="path32"
     style="stroke-width:0.999999" />
  <path
     d="m 307.47784,78.231688 h -9.67633 a 1.1292671,1.1292671 0 0 0 -1.12536,1.12963 v 9.67633 a 1.1256129,1.1256129 0 0 0 1.12536,1.1254 h 9.67633 a 1.1293844,1.1293844 0 0 0 1.12974,-1.1254 v -9.67633 a 1.1330429,1.1330429 0 0 0 -1.12974,-1.12963 z"
     fill="#ffd800"
     id="path33"
     style="stroke-width:0.999999" />
  <path
     d="m 307.47784,94.720958 h -9.67633 a 1.1292671,1.1292671 0 0 0 -1.12536,1.1297 v 9.676332 a 1.1255651,1.1255651 0 0 0 1.12536,1.12536 h 9.67633 a 1.1293366,1.1293366 0 0 0 1.12974,-1.12536 v -9.676332 a 1.1330559,1.1330559 0 0 0 -1.12974,-1.1297 z"
     fill="#ffd800"
     id="path34"
     style="stroke-width:0.999999" />
  <path
     d="m 307.47784,111.21024 h -9.67633 a 1.1293323,1.1293323 0 0 0 -1.12536,1.12974 v 9.67199 a 1.1264906,1.1264906 0 0 0 1.12536,1.12963 h 9.67633 a 1.1302404,1.1302404 0 0 0 1.12974,-1.12963 v -9.67199 a 1.1330994,1.1330994 0 0 0 -1.12974,-1.12974 z"
     fill="#e6e6e6"
     id="path35"
     style="stroke-width:0.999999" />
  <path
     d="m 307.47784,127.69951 h -9.67633 a 1.129367,1.129367 0 0 0 -1.12536,1.12975 v 9.67198 a 1.1265341,1.1265341 0 0 0 1.12536,1.1297 h 9.67633 a 1.1302838,1.1302838 0 0 0 1.12974,-1.1297 v -9.67198 a 1.1331385,1.1331385 0 0 0 -1.12974,-1.12975 z"
     fill="#ffffff"
     id="path36"
     style="stroke-width:0.999999" />
  <path
     d="m 307.47784,144.18884 h -9.67633 a 1.1265384,1.1265384 0 0 0 -1.12536,1.1297 v 9.67199 a 1.1265819,1.1265819 0 0 0 1.12536,1.12974 h 9.67633 a 1.130336,1.130336 0 0 0 1.12974,-1.12974 v -9.67199 a 1.1302882,1.1302882 0 0 0 -1.12974,-1.1297 z"
     fill="#ffd800"
     id="path37"
     style="stroke-width:0.999999" />
  <path
     d="m 327.79509,78.231688 h -9.67633 a 1.1292671,1.1292671 0 0 0 -1.12536,1.12963 v 9.67633 a 1.1256129,1.1256129 0 0 0 1.12536,1.1254 h 9.67633 a 1.1293366,1.1293366 0 0 0 1.1297,-1.1254 v -9.67633 a 1.1329994,1.1329994 0 0 0 -1.1297,-1.12963 z"
     fill="#ffd800"
     id="path38"
     style="stroke-width:0.999999" />
  <path
     d="m 327.79509,94.720958 h -9.67633 a 1.1292671,1.1292671 0 0 0 -1.12536,1.1297 v 9.676332 a 1.1255651,1.1255651 0 0 0 1.12536,1.12536 h 9.67633 a 1.1292932,1.1292932 0 0 0 1.1297,-1.12536 v -9.676332 a 1.1330081,1.1330081 0 0 0 -1.1297,-1.1297 z"
     fill="#ffd800"
     id="path39"
     style="stroke-width:0.999999" />
  <path
     d="m 327.79509,111.21024 h -9.67633 a 1.1293323,1.1293323 0 0 0 -1.12536,1.12974 v 9.67199 a 1.1264906,1.1264906 0 0 0 1.12536,1.12963 h 9.67633 a 1.1301969,1.1301969 0 0 0 1.1297,-1.12963 v -9.67199 a 1.1330559,1.1330559 0 0 0 -1.1297,-1.12974 z"
     fill="#e6e6e6"
     id="path40"
     style="stroke-width:0.999999" />
  <path
     d="m 327.79509,127.69951 h -9.67633 a 1.129367,1.129367 0 0 0 -1.12536,1.12975 v 9.67198 a 1.1265341,1.1265341 0 0 0 1.12536,1.1297 h 9.67633 a 1.1302404,1.1302404 0 0 0 1.1297,-1.1297 v -9.67198 a 1.1330907,1.1330907 0 0 0 -1.1297,-1.12975 z"
     fill="#ffd800"
     id="path41"
     style="stroke-width:0.999999" />
  <path
     d="m 327.79509,144.18884 h -9.67633 a 1.1265384,1.1265384 0 0 0 -1.12536,1.1297 v 9.67199 a 1.1265819,1.1265819 0 0 0 1.12536,1.12974 h 9.67633 a 1.1302882,1.1302882 0 0 0 1.1297,-1.12974 v -9.67199 a 1.1302447,1.1302447 0 0 0 -1.1297,-1.1297 z"
     fill="#ffd800"
     id="path42"
     style="stroke-width:0.999999" />
  <path
     d="m 348.11234,78.231688 h -9.67633 a 1.1292671,1.1292671 0 0 0 -1.12536,1.12963 v 9.67633 a 1.1256129,1.1256129 0 0 0 1.12536,1.1254 h 9.67633 a 1.1293366,1.1293366 0 0 0 1.1297,-1.1254 v -9.67633 a 1.1329994,1.1329994 0 0 0 -1.1297,-1.12963 z"
     fill="#e6e6e6"
     id="path43"
     style="stroke-width:0.999999" />
  <path
     d="m 348.11234,94.720958 h -9.67633 a 1.1292671,1.1292671 0 0 0 -1.12536,1.1297 v 9.676332 a 1.1255651,1.1255651 0 0 0 1.12536,1.12536 h 9.67633 a 1.1292932,1.1292932 0 0 0 1.1297,-1.12536 v -9.676332 a 1.1330081,1.1330081 0 0 0 -1.1297,-1.1297 z"
     fill="#ffd800"
     id="path44"
     style="stroke-width:0.999999" />
  <path
     d="m 348.11234,111.21024 h -9.67633 a 1.1293323,1.1293323 0 0 0 -1.12536,1.12974 v 9.67199 a 1.1264906,1.1264906 0 0 0 1.12536,1.12963 h 9.67633 a 1.1301969,1.1301969 0 0 0 1.1297,-1.12963 v -9.67199 a 1.1330559,1.1330559 0 0 0 -1.1297,-1.12974 z"
     fill="#ffd800"
     id="path45"
     style="stroke-width:0.999999" />
  <path
     d="m 348.11234,127.69951 h -9.67633 a 1.129367,1.129367 0 0 0 -1.12536,1.12975 v 9.67198 a 1.1265341,1.1265341 0 0 0 1.12536,1.1297 h 9.67633 a 1.1302404,1.1302404 0 0 0 1.1297,-1.1297 v -9.67198 a 1.1330907,1.1330907 0 0 0 -1.1297,-1.12975 z"
     fill="#ffd800"
     id="path46"
     style="stroke-width:0.999999" />
  <path
     d="m 348.11234,144.18884 h -9.67633 a 1.1265384,1.1265384 0 0 0 -1.12536,1.1297 v 9.67199 a 1.1265819,1.1265819 0 0 0 1.12536,1.12974 h 9.67633 a 1.1302882,1.1302882 0 0 0 1.1297,-1.12974 v -9.67199 a 1.1302447,1.1302447 0 0 0 -1.1297,-1.1297 z"
     fill="#e6e6e6"
     id="path47"
     style="stroke-width:0.999999" />
  <path
     d="m 368.42958,78.231688 h -9.67632 a 1.1293236,1.1293236 0 0 0 -1.1254,1.12963 v 9.67633 a 1.1256607,1.1256607 0 0 0 1.1254,1.1254 h 9.67632 a 1.1293366,1.1293366 0 0 0 1.12971,-1.1254 v -9.67633 a 1.1329994,1.1329994 0 0 0 -1.12971,-1.12963 z"
     fill="#e6e6e6"
     id="path48"
     style="stroke-width:0.999999" />
  <path
     d="m 368.42958,94.720958 h -9.67632 a 1.1293366,1.1293366 0 0 0 -1.1254,1.1297 v 9.676332 a 1.1256129,1.1256129 0 0 0 1.1254,1.12536 h 9.67632 a 1.1292932,1.1292932 0 0 0 1.12971,-1.12536 v -9.676332 a 1.1330081,1.1330081 0 0 0 -1.12971,-1.1297 z"
     fill="#e6e6e6"
     id="path49"
     style="stroke-width:0.999999" />
  <path
     d="m 368.42958,111.21024 h -9.67632 a 1.1293801,1.1293801 0 0 0 -1.1254,1.12974 v 9.67199 a 1.1265384,1.1265384 0 0 0 1.1254,1.12963 h 9.67632 a 1.1301969,1.1301969 0 0 0 1.12971,-1.12963 v -9.67199 a 1.1330559,1.1330559 0 0 0 -1.12971,-1.12974 z"
     fill="#ffd800"
     id="path50"
     style="stroke-width:0.999999" />
  <path
     d="m 368.42958,127.69951 h -9.67632 a 1.1294148,1.1294148 0 0 0 -1.1254,1.12975 v 9.67198 a 1.1265819,1.1265819 0 0 0 1.1254,1.1297 h 9.67632 a 1.1302404,1.1302404 0 0 0 1.12971,-1.1297 v -9.67198 a 1.1330907,1.1330907 0 0 0 -1.12971,-1.12975 z"
     fill="#e6e6e6"
     id="path51"
     style="stroke-width:0.999999" />
  <path
     d="m 368.42958,144.18884 h -9.67632 a 1.1265862,1.1265862 0 0 0 -1.1254,1.1297 v 9.67199 a 1.1266297,1.1266297 0 0 0 1.1254,1.12974 h 9.67632 a 1.1302882,1.1302882 0 0 0 1.12971,-1.12974 v -9.67199 a 1.1302447,1.1302447 0 0 0 -1.12971,-1.1297 z"
     fill="#e6e6e6"
     id="path52"
     style="stroke-width:0.999999" />
  <polygon
     points="335.475,660.051 336.005,659.981 336.095,660.051 "
     fill="#2f2e41"
     id="polygon52"
     transform="matrix(0.43450061,0,0,0.43450061,-5.7172062e-7,1.769597e-5)"
     style="stroke-width:2.30149" />
  <circle
     id="b6132315-04e2-4cdb-a713-107c9cd58b0b"
     data-name="ab6171fa-7d69-4734-b81c-8dff60f9761b"
     cx="122.88302"
     cy="76.790512"
     r="29.685886"
     fill="#ffb6b6"
     style="stroke-width:0.999999" />
  <path
     id="f4304bdd-ba2d-4fff-b404-410205410c5d-201"
     data-name="bf427902-b9bf-4946-b5d7-5c1c7e04535e"
     d="m 148.87988,55.025328 c 0,0 7.76426,-14.84294 -9.31736,-16.19231 0,0 -14.56224,-13.20981 -29.40518,-2.41496 0,0 -8.09614,0 -12.523411,9.16174 0,0 -6.36761,-2.41496 -7.76692,4.04807 0,0 -4.65936,13.49362 0,25.63785 4.65936,12.14426 6.207,13.49358 6.207,13.49358 0,0 -7.65629,-25.46103 10.979791,-26.81043 18.63609,-1.34939 39.49033,-12.99566 41.04343,1.84726 1.55309,14.84291 3.89021,18.5001 3.89021,18.5001 0,0 14.75111,-21.19875 -3.10756,-27.2709 z"
     fill="#2f2e41"
     style="stroke-width:0.999999" />
  <path
     d="m 199.67389,149.95033 -0.0956,0.50402 -1.07322,5.66588 -7.4169,39.19196 -0.43884,2.30722 -0.92114,4.87945 -1.26001,6.65652 -2.79392,14.75133 -0.79941,4.22769 -0.29983,1.58588 -0.10428,0.55616 -0.8299,4.37546 -0.25201,1.32084 -2.02477,15.0033 -1.76845,13.07413 5.91795,5.9179 -3.5282,3.52814 -2.31581,13.26531 0.004,0.0304 H 85.156639 q -5.73545,-3.71503 -11.30571,-7.6603 l 0.77776,-5.82226 c 0,0 2.67648,-10.39763 1.55109,-11.64027 -1.12094,-1.24268 -3.58029,-3.46297 -3.58029,-3.46297 l 3.09805,-7.23009 0.43015,-1.00367 -0.72127,-14.95988 -0.0173,-0.36064 -0.23897,-4.93162 -0.0305,-0.63437 -0.0478,-0.95153 -0.9168,-18.97902 -0.0174,-0.31288 -0.27803,-5.75279 -0.26075,-5.47029 -0.11297,-2.30722 -1.11664,-23.08502 -0.75603,-15.67676 -0.66044,-13.64766 2.6548,-0.89939 28.394661,-9.6503 11.76185,-15.2901 24.4798,0.18249 11.98357,0.0913 19.99567,18.54446 4.54926,2.1725 0.0348,0.0174 3.26305,1.55986 8.27289,3.94961 8.74655,4.17994 4.48832,2.14206 z"
     fill="#cacaca"
     id="path53"
     style="stroke-width:0.999999" />
  <path
     d="m 116.92797,242.25621 a 13.159233,13.159233 0 0 1 -17.668491,-9.74585 l -46.29987,-6.56874 16.09512,-18.20645 41.499591,9.02906 a 13.230544,13.230544 0 0 1 6.37365,25.49199 z"
     fill="#ffb6b6"
     id="path54"
     style="stroke-width:0.999999" />
  <path
     d="m 96.284449,209.15538 a 5.8755302,5.8755302 0 0 0 -3.42817,-2.11602 l -18.99636,-3.94964 -1.95091,-0.40406 a 8.2262567,8.2262567 0 0 1 -5.44433,-3.94095 8.3252707,8.3252707 0 0 1 -1.06453,-3.43251 8.2096978,8.2096978 0 0 1 0.38671,-3.25007 l 6.58268,-19.83495 4.27112,-12.86991 a 18.158715,18.158715 0 0 0 0.90815,-4.80123 18.835071,18.835071 0 0 0 -3.94095,-12.55267 18.550248,18.550248 0 0 0 -21.29488,-5.92665 c -0.10863,0.0392 -0.2216,0.0826 -0.33022,0.126 a 18.502435,18.502435 0 0 0 -10.99721,12.34416 l -4.64047,16.88035 -9.57205,34.7992 a 25.099536,25.099536 0 0 0 21.27315,31.57947 l 27.36051,3.20661 12.66135,1.486 a 5.8642418,5.8642418 0 0 0 6.44798,-4.6622 2.1270717,2.1270717 0 0 0 0.0478,-0.23899 l 0.30415,-1.87708 2.57661,-15.80708 0.026,-0.16081 a 5.8548219,5.8548219 0 0 0 -1.18618,-4.59697 z"
     fill="#cacaca"
     id="path55"
     style="stroke-width:0.999999" />
  <path
     d="m 146.41913,242.76294 a 13.159251,13.159251 0 0 0 16.11758,-12.14003 l 44.91085,-13.03227 -18.5017,-15.7548 -39.81162,14.79105 a 13.230544,13.230544 0 0 0 -2.71511,26.13608 z"
     fill="#ffb6b6"
     id="path56"
     style="stroke-width:0.999999" />
  <path
     d="M 229.74572,188.43837 208.3856,139.27902 a 18.604882,18.604882 0 0 0 -8.80732,-9.27663 18.838282,18.838282 0 0 0 -3.81488,-1.3904 c -0.20425,-0.0521 -0.40846,-0.0999 -0.61264,-0.13907 a 18.306336,18.306336 0 0 0 -8.46407,0.15646 18.602614,18.602614 0 0 0 -11.87925,9.4417 0.43613433,0.43613433 0 0 0 -0.0348,0.0608 18.727085,18.727085 0 0 0 -0.16082,16.88039 l 0.2651,0.53009 15.09455,30.31511 a 8.2122614,8.2122614 0 0 1 -4.56226,11.37954 l -1.06021,0.38242 -19.06588,6.88677 a 5.8644113,5.8644113 0 0 0 -3.61939,7.29526 l 0.0478,0.15212 5.34436,17.10188 c 0.026,0.0782 0.0521,0.15647 0.0825,0.23463 a 3.0650977,3.0650977 0 0 0 0.1738,0.43016 5.8578373,5.8578373 0 0 0 6.86942,3.27179 l 10.289,-2.71563 2.09862,-0.55616 26.56971,-7.01714 a 25.096916,25.096916 0 0 0 16.60665,-34.26477 z"
     fill="#cacaca"
     id="path57"
     style="stroke-width:0.999999" />
  <path
     d="m 19.508209,229.72031 a 223.38386,223.38386 0 0 0 19.87841,21.25577 H 235.76786 a 7.1457449,7.1457449 0 0 1 7.1345,7.13884 l 0.28242,49.76336 a 154.4346,154.4346 0 0 0 33.66077,-21.08632 q 4.27548,-3.51294 8.28592,-7.33002 2.62656,-2.48969 5.12711,-5.10104 a 154.52081,154.52081 0 0 0 29.90233,-44.64059 z"
     fill="#3f3d56"
     id="path58"
     style="stroke-width:0.999999" />
  <path
     d="m 290.25858,274.36087 q -2.49618,2.61352 -5.12708,5.10103 h -41.80333 v -5.10103 z"
     fill="#ffffff"
     id="path59"
     style="stroke-width:0.999999" />
  <path
     d="m 199.28284,111.21024 a 2.4061166,2.4061166 0 0 0 -2.11602,-1.26001 H 54.720139 a 2.413438,2.413438 0 0 0 -2.40713,2.41144 v 85.25776 H 199.57827 v -85.25776 a 2.3399943,2.3399943 0 0 0 -0.29543,-1.15143 z"
     fill="#3f3d56"
     id="path60"
     style="stroke-width:0.999999" />
  <path
     d="m 52.184019,195.31115 v 10.52091 a 3.3212531,3.3212531 0 0 0 3.32124,3.32129 h 54.354601 v 20.7633 h -0.72207 a 0.43141566,0.43141566 0 0 0 -0.43146,0.43143 v 1.44416 a 0.43141566,0.43141566 0 0 0 0.43146,0.43146 h 33.74262 a 0.43142,0.43142 0 0 0 0.43146,-0.43146 v -1.44416 a 0.43141566,0.43141566 0 0 0 -0.43146,-0.43143 h -0.72208 v -20.7633 h 54.3546 a 3.3212531,3.3212531 0 0 0 3.32125,-3.32129 v -10.52091 z"
     fill="#3f3d56"
     id="path61"
     style="stroke-width:0.999999" />
  <circle
     cx="124.225"
     cy="151.51201"
     r="13.602658"
     fill="#ffd800"
     id="circle61"
     style="stroke-width:0.999999" />
  <path
     d="m 158.88298,75.168428 h -2.17251 c 0,-16.42412 -16.25467,-27.1867 -32.65272,-27.19539 a 35.795147,35.795147 0 0 0 -7.10408,0.69086 c -2.63308,0.52574 -5.36609,1.15577 -8.0513,1.97697 -10.588781,3.24572 -20.408491,9.51991 -20.408491,24.52756 a 34.147837,34.147837 0 0 0 1.10363,8.63788 l -2.10299,0.54747 a 36.444052,36.444052 0 0 1 -1.17315,-9.18535 c 0,-13.11322 5.38347,-22.12042 14.681781,-27.49085 4.88813,-2.82425 10.85382,-4.64481 17.68852,-5.53119 a 42.203388,42.203388 0 0 1 8.58139,-0.2607 c 18.85732,1.35562 31.60992,15.81581 31.60992,33.28274 z"
     fill="#ffd800"
     id="path62"
     style="stroke-width:0.999999" />
  <path
     d="m 162.50237,76.371978 -0.85597,-6.32633 a 6.8260611,6.8260611 0 0 0 -2.1725,-4.15382 6.8719139,6.8719139 0 0 0 -5.75714,-1.738 l -1.35998,0.18683 a 2.8347949,2.8347949 0 0 0 -1.89008,1.09929 2.84511,2.84511 0 0 0 -0.56051,2.11602 l 1.97698,14.57315 a 2.8577627,2.8577627 0 0 0 2.30285,2.42016 2.6740992,2.6740992 0 0 0 0.53009,0.0521 2.8237456,2.8237456 0 0 0 0.38236,-0.0261 l 1.52076,-0.20421 a 6.8613512,6.8613512 0 0 0 4.66653,-2.79384 c 0.11732,-0.16511 0.23029,-0.33456 0.33457,-0.50839 a 7.27719,7.27719 0 0 0 0.88204,-4.69693 z"
     fill="#ffd800"
     id="path63"
     style="stroke-width:0.999999" />
  <path
     d="m 151.47908,64.605718 a 2.7945776,2.7945776 0 0 0 -1.01238,0.83425 2.84511,2.84511 0 0 0 -0.56051,2.11601 l 1.97698,14.57315 a 2.8577627,2.8577627 0 0 0 2.30285,2.42017 z"
     fill="#ffffff"
     id="path64"
     style="stroke-width:0.999999" />
  <path
     d="m 162.50237,76.371978 -0.85597,-6.32633 a 6.8260611,6.8260611 0 0 0 -2.1725,-4.15382 l 1.96828,14.49928 a 2.683441,2.683441 0 0 0 0.17815,0.67782 7.27719,7.27719 0 0 0 0.88204,-4.69695 z"
     fill="#3f3d56"
     id="path65"
     style="stroke-width:0.999999" />
  <ellipse
     cx="143.44458"
     cy="98.089447"
     rx="1.0862515"
     ry="3.0415041"
     transform="rotate(-7.7254896)"
     fill="#3f3d56"
     id="ellipse65"
     style="stroke-width:0.999999" />
  <ellipse
     cx="143.20425"
     cy="90.164215"
     rx="1.0862515"
     ry="3.0415041"
     transform="rotate(-7.7254896)"
     fill="#3f3d56"
     id="ellipse66"
     style="stroke-width:0.999999" />
  <ellipse
     cx="150.97595"
     cy="94.287872"
     rx="1.0862515"
     ry="3.0415041"
     transform="rotate(-7.7254896)"
     fill="#3f3d56"
     id="ellipse67"
     style="stroke-width:0.999999" />
  <path
     d="m 124.05775,47.973028 a 35.795147,35.795147 0 0 0 -7.10408,0.69085 c -2.63308,0.52575 -5.36609,1.15578 -8.0513,1.97698 -4.19293,-0.20421 -7.27789,-1.29047 -7.89922,-2.96329 4.88813,-2.82426 10.85382,-4.64481 17.68852,-5.5312 a 42.203388,42.203388 0 0 1 8.58139,-0.2607 2.488385,2.488385 0 0 1 1.18184,1.6598 c 0.20421,1.51208 -1.52075,3.11971 -4.39715,4.42756 z"
     fill="#3f3d56"
     id="path67"
     style="stroke-width:0.999999" />
  <path
     d="m 96.319229,90.245608 -3.34565,-13.90836 a 2.6172883,2.6172883 0 0 0 -2.12037,-1.97698 2.9256056,2.9256056 0 0 0 -0.4345,-0.0348 2.6181964,2.6181964 0 0 0 -0.6083,0.0739 l -1.29481,0.31284 a 6.4757971,6.4757971 0 0 0 -4.77516,7.80363 l 1.49903,6.23943 a 6.8847013,6.8847013 0 0 0 2.32023,3.74542 6.1025611,6.1025611 0 0 0 0.59092,0.42147 6.4346108,6.4346108 0 0 0 4.94027,0.79948 l 1.29047,-0.31284 a 2.5375444,2.5375444 0 0 0 0.94287,-0.43885 2.6040795,2.6040795 0 0 0 0.995,-2.72434 z"
     fill="#ffd800"
     id="path68"
     style="stroke-width:0.999999" />
  <ellipse
     cx="66.318062"
     cy="103.07755"
     rx="1.0862515"
     ry="3.0415044"
     transform="rotate(-13.53051)"
     fill="#3f3d56"
     id="ellipse68"
     style="stroke-width:0.999999" />
  <ellipse
     cx="61.788692"
     cy="103.32831"
     rx="1.0862515"
     ry="3.0415044"
     transform="rotate(-13.53051)"
     fill="#3f3d56"
     id="ellipse69"
     style="stroke-width:0.999999" />
  <path
     d="m 96.532139,90.193438 -3.34566,-13.90836 a 2.838045,2.838045 0 0 0 -2.29851,-2.13774 l 4.56661,18.99636 a 2.8290769,2.8290769 0 0 0 1.07756,-2.95026 z"
     fill="#ffffff"
     id="path69"
     style="stroke-width:0.999999" />
  <path
     d="m 84.496469,79.761108 a 2.813826,2.813826 0 0 0 -0.50837,-1.06453 6.398217,6.398217 0 0 0 -0.24766,3.81926 l 1.49903,6.23943 a 6.8847013,6.8847013 0 0 0 2.32023,3.74542 z"
     fill="#3f3d56"
     id="path70"
     style="stroke-width:0.999999" />
</svg>
